Coordinates
version=1
nRows=14
nColumns=36
inDegrees=yes

Units are S.I. units (second, meters, Newtons, ...)
If the header above contains a line with 'inDegrees', this indicates whether rotational values are in degrees (yes) or radians (no).

endheader
time	pelvis_tilt	pelvis_list	pelvis_rotation	pelvis_tx	pelvis_ty	pelvis_tz	hip_flexion_r	hip_adduction_r	hip_rotation_r	knee_angle_r	knee_angle_r_beta	ankle_angle_r	subtalar_angle_r	mtp_angle_r	hip_flexion_l	hip_adduction_l	hip_rotation_l	knee_angle_l	knee_angle_l_beta	ankle_angle_l	subtalar_angle_l	mtp_angle_l	lumbar_extension	lumbar_bending	lumbar_rotation	arm_flex_r	arm_add_r	arm_rot_r	elbow_flex_r	pro_sup_r	arm_flex_l	arm_add_l	arm_rot_l	elbow_flex_l	pro_sup_l
      1.33000000	    -30.08268088	     -4.43702425	      2.74432298	     -0.36697147	      0.73121547	     -0.63625787	     91.33964068	     -7.48888237	     -3.68986445	     85.06733069	      1.48470501	     26.52781398	     -6.98065209	     -7.41987381	     94.02617047	     -8.92375721	     -1.25440252	     87.41900914	      1.52574954	     23.73784475	     -1.62879613	     -7.41987381	    -39.69058141	      4.54673997	      2.73570704	    -27.33186006	    -10.35855695	     13.43771966	     49.64024597	    112.98687447	    -16.65562048	    -12.98710265	     14.04815877	     56.97246970	    114.11892282
      1.34000000	    -31.68086201	     -4.72981885	      2.90942332	     -0.36754905	      0.72013516	     -0.63827004	     93.96708322	     -8.14159732	     -3.77837520	     86.52421264	      1.51013239	     27.01394318	     -6.60520056	     -7.42160742	     96.82223650	     -7.96907706	     -0.44203036	     88.81964382	      1.55019523	     23.87162991	     -2.41388521	     -7.42160742	    -40.05668278	      5.05433836	      3.12711163	    -24.40521556	    -11.75487105	     15.39869250	     50.72326201	    113.50013629	    -11.16495471	    -13.57764891	     16.76743134	     55.06132096	    114.21736792
      1.35000000	    -33.01877980	     -5.02255002	      2.66816289	     -0.36734509	      0.71047346	     -0.63881199	     96.09910255	     -8.18731477	     -3.91904757	     87.65111303	      1.52980052	     27.51746560	     -6.51470540	     -7.42536981	     99.17105752	     -7.70654164	      0.20819897	     90.10157538	      1.57256915	     23.99695131	     -3.09925157	     -7.42536981	    -40.47386119	      5.24946343	      4.40910189	    -21.48432564	    -12.80783418	     16.50578650	     51.15155395	    114.47923464	     -5.02950832	    -14.62290486	     20.87010651	     53.04575902	    114.42599008
      1.36000000	    -33.94709928	     -5.42357770	      2.17838387	     -0.36589217	      0.70258288	     -0.63875631	     97.55175374	     -7.92083437	     -4.31268090	     88.55817467	      1.54563173	     27.99199473	     -6.53744079	     -7.42688632	    100.93378253	     -7.85273818	      0.97328364	     91.34891792	      1.59433939	     24.52915417	     -3.39850625	     -7.42688632	    -41.13357179	      5.29526065	      5.30246413	    -17.80233948	    -14.24728498	     18.02331467	     51.12296621	    114.69985171	      0.27070289	    -14.95431032	     21.72583694	     51.36193219	    114.03514201
      1.37000000	    -34.32294719	     -5.47813602	      2.08406632	     -0.36352892	      0.69637757	     -0.63924598	     98.47900824	     -8.00389879	     -4.20463053	     89.68514999	      1.56530116	     28.46836787	     -6.27573011	     -7.42884192	    101.85122845	     -7.68506814	      1.26828802	     92.42856502	      1.61318278	     25.01094069	     -3.53665501	     -7.42884192	    -42.09385187	      5.22432118	      5.62440892	    -13.64257212	    -15.51587034	     19.46410493	     50.42725686	    114.80456366	      5.77283006	    -15.63690847	     23.29539231	     49.71870458	    113.59517027
      1.38000000	    -34.06106717	     -5.58003910	      1.96632627	     -0.36037121	      0.69173344	     -0.63924263	     98.67060672	     -7.99457513	     -4.26645777	     90.83737268	      1.58541124	     28.73473211	     -6.32059754	     -7.42926261	    102.09618110	     -7.65692882	      1.70609953	     93.61963159	      1.63397082	     25.39504432	     -3.76994096	     -7.42926261	    -43.59744210	      5.07949903	      5.57008467	     -9.27914626	    -16.37216459	     19.45343947	     49.98537948	    114.81867737	     10.63906782	    -16.09087328	     22.91521719	     48.64818597	    113.42701781
      1.39000000	    -33.81937194	     -5.70231065	      1.67127400	     -0.35689031	      0.68859319	     -0.63849895	     98.61038328	     -7.69063176	     -4.38762567	     91.57889898	      1.59835331	     29.51415952	     -5.90499636	     -7.43196171	    102.16151137	     -7.92623099	      2.14766067	     94.53716891	      1.64998486	     26.28672847	     -3.30103328	     -7.43196171	    -44.55176522	      4.76957305	      5.89191104	     -3.99835092	    -17.52675830	     22.15173932	     47.65139142	    114.92363260	     16.79981394	    -16.53929113	     25.42734245	     44.91449875	    113.33472762
      1.40000000	    -33.33291162	     -5.89721290	      1.46928438	     -0.35340179	      0.68589568	     -0.63777405	     98.31489370	     -7.45648088	     -4.62126860	     92.38686048	      1.61245490	     29.93150485	     -5.87880104	     -7.43390889	    102.04754928	     -8.19740287	      2.61429193	     95.51586918	      1.66706641	     26.86940820	     -3.06202316	     -7.43390889	    -45.58058042	      4.62669797	      5.84112216	      0.99514101	    -17.96858084	     22.36020929	     45.99046277	    114.83583945	     21.88430684	    -16.80988725	     25.03454223	     42.46269315	    113.02107040
      1.41000000	    -32.69725313	     -6.10157247	      1.53629568	     -0.34996809	      0.68399128	     -0.63773437	     97.79870207	     -7.47013521	     -4.79618117	     93.15072568	      1.62578686	     30.16825035	     -5.97037330	     -7.43433111	    101.71211558	     -8.22968915	      2.98285542	     96.32387191	      1.68116871	     27.08822914	     -3.07125570	     -7.43433111	    -46.60205764	      4.79839301	      5.35454011	      5.80051886	    -18.17876996	     21.39296486	     45.22997311	    114.70667075	     26.40347894	    -17.38476014	     23.78904210	     40.98481194	    112.72222165
      1.42000000	    -32.06503443	     -6.07869574	      1.68372098	     -0.34607706	      0.68336014	     -0.63791752	     97.15348712	     -7.53576695	     -4.70817692	     93.76606327	      1.63652653	     30.78742160	     -5.94563930	     -7.43524581	    101.05746453	     -8.27974321	      2.98773456	     96.87374669	      1.69076584	     27.73442609	     -2.73108757	     -7.43524581	    -47.27741992	      4.73679651	      5.11011955	     10.67285722	    -18.13032720	     20.63941940	     43.04306466	    114.54945637	     31.40003887	    -17.15318885	     21.77442083	     38.49668064	    112.18706642
      1.43000000	    -31.17202370	     -6.19006029	      1.41353539	     -0.34144927	      0.68441227	     -0.63677790	     95.96695846	     -6.93946895	     -4.81959980	     94.01646616	      1.64089689	     31.32168456	     -6.03175321	     -7.43653092	    100.01236694	     -8.99139310	      3.13192850	     97.36770946	      1.69938712	     28.59226899	     -2.02057682	     -7.43653092	    -48.15763223	      4.44743128	      4.98584486	     15.44687704	    -17.88413676	     19.17310550	     41.60992001	    114.38618388	     35.82315861	    -17.23962393	     18.73822337	     37.44336207	    111.43363584
      1.44000000	    -30.21641776	     -6.45660350	      0.71846076	     -0.33650417	      0.68611920	     -0.63420011	     94.60758120	     -5.67841788	     -5.08989725	     94.06243760	      1.64169924	     31.50086703	     -6.59195541	     -7.43997175	     98.92128153	    -10.27855322	      3.56691331	     97.91790358	      1.70898981	     29.65443092	     -0.79089774	     -7.43997175	    -48.94764860	      3.87634454	      5.15725415	     19.70646272	    -17.31690678	     16.27412534	     41.28158955	    114.34621295	     39.22227500	    -17.22377441	     13.22649292	     39.08130181	    109.91054597
      1.45000000	    -29.39672985	     -6.63400078	      0.10363796	     -0.33195941	      0.68831120	     -0.63186186	     93.40930910	     -4.51578876	     -5.25623118	     94.04832654	      1.64145295	     31.47814621	     -7.23168280	     -7.44178937	     97.83352505	    -11.36036817	      3.97185376	     98.26495705	      1.71504704	     30.45084235	      0.10011141	     -7.44178937	    -49.19259087	      3.27203387	      5.49973983	     23.23707218	    -16.65062679	     12.01929290	     42.00496040	    114.13509771	     42.84053868	    -16.67767767	      8.63827599	     40.72298945	    108.96490894
      1.46000000	    -28.47256000	     -6.70024246	     -0.13693037	     -0.32783410	      0.69143937	     -0.63086830	     92.08195039	     -3.80765121	     -5.22130795	     94.03755528	      1.64126496	     31.52513997	     -7.72055915	     -7.44337612	     96.44753001	    -11.77451708	      4.30126933	     98.34750417	      1.71648776	     31.03656816	      0.42636792	     -7.44337612	    -49.30770155	      2.91080710	      5.63523248	     26.22231947	    -16.24391130	      7.57879929	     44.58382242	    114.08620583	     46.27978293	    -15.88624481	      4.97009487	     43.69095552	    108.50602437
